# xmcd CD database file
# Copyright (C) 1997 Ti Kan
# 
# Track frame offsets:
#     150
#     22042
#     47677
#     67290
#     87947
#     105860
#     124410
#     141217
#     159400
#     180482
#     200707
#     218347
#     235677
# 
# Disc length: 3476 seconds
# 
# Revision: 1
# Processed by: cddbd v1.4b41PL1 Copyright (c) Steve Scherf et al.
# Submitted via: DiscPlay 4.0.4
# 
DISCID=b10d920d
DTITLE=The Gravel Pit Campers - A Glimpse
DYEAR=1900
DGENRE=
TTITLE0=Everything Must Change
TTITLE1=A Glimpse
TTITLE2=One By One
TTITLE3=Angel Without Wings
TTITLE4=Shake And Dance
TTITLE5=When I Get Home
TTITLE6=It Could Be Worse
TTITLE7=I'm Yours
TTITLE8=Let Go
TTITLE9=True Enough
TTITLE10=Josephine
TTITLE11=She's Lookin' At Me
TTITLE12=Only One Way To Leave
EXTD=
EXTT0=
EXTT1=
EXTT2=
EXTT3=
EXTT4=
EXTT5=
EXTT6=
EXTT7=
EXTT8=
EXTT9=
EXTT10=
EXTT11=
EXTT12=
PLAYORDER=
